C:\GBW_MyPrograms\KinderuniversiteitApp\Resultaten\w_group_2_3\Ellis_model12_v2.mot
version=1
nRows=7
nColumns=31
inDegrees=yes
endheader
                time	         pelvis_tilt	           pelvis_tx	           pelvis_ty	       hip_flexion_r	        knee_angle_r	       ankle_angle_r	       hip_flexion_l	        knee_angle_l	       ankle_angle_l	    lumbar_extension	          arm_flex_r	          arm_flex_l	hamstrings_r/activation	bifemsh_r/activation	glut_max_r/activation	iliopsoas_r/activation	rect_fem_r/activation	  vasti_r/activation	gastroc_r/activation	 soleus_r/activation	tib_ant_r/activation	hamstrings_l/activation	bifemsh_l/activation	glut_max_l/activation	iliopsoas_l/activation	rect_fem_l/activation	  vasti_l/activation	gastroc_l/activation	 soleus_l/activation	tib_ant_l/activation	
          0.67225099	         -0.36710054	          0.88020821	          0.48363346	         28.48963296	        -13.06022351	        -17.42958444	        -18.28980703	        -14.58998794	        -32.57131655	         -3.08377244	         59.78021862	         59.78094682	          0.89301622	          0.10898659	          0.96179271	          0.09896209	          0.15471058	          0.53990610	          0.05037696	          0.05043370	          0.37119151	          0.11069328	          0.30459601	          0.15707510	          0.47132497	          0.98674100	          0.45214188	          0.47385897	          0.60280207	          0.24075478	
          0.67897350	         -0.20122873	          0.89434824	          0.48251752	         24.98794418	        -10.19208834	        -16.39645246	        -19.73769706	        -13.84352365	        -34.25891648	         -2.01807338	         59.45980144	         59.46043342	          0.92575174	          0.10020950	          0.95460516	          0.08945570	          0.13954282	          0.48541623	          0.07455525	          0.07689674	          0.33403207	          0.15658984	          0.27406337	          0.41655453	          0.42375977	          0.98878613	          0.62046034	          0.42663739	          0.54256433	          0.31780229	
          0.68569601	         -0.02321594	          0.90831564	          0.48158950	         21.61500721	         -7.77438233	        -15.08908918	        -21.42336104	        -12.58542944	        -35.06621330	         -0.94574600	         58.98325716	         58.98371521	          0.94843288	          0.09536667	          0.95497868	          0.08088108	          0.12591041	          0.43638951	          0.06776321	          0.06913276	          0.30085362	          0.14481663	          0.24665705	          0.59663184	          0.38094457	          0.99054842	          0.73617680	          0.38418618	          0.48839209	          0.35638941	
          0.69241852	          0.13271490	          0.92166954	          0.48117926	         18.66097499	         -5.87717237	        -13.80713795	        -23.13237908	        -10.94507546	        -34.87346940	          0.05041827	         58.45053577	         58.45026199	          0.96389142	          0.37485250	          0.85863708	          0.07320832	          0.11364841	          0.39218897	          0.06262689	          0.06206989	          0.27097991	          0.13063683	          0.22206296	          0.54615244	          0.34266639	          0.99238488	          0.66219306	          0.34603263	          0.43966306	          0.42826612	
          0.69914103	          0.24687352	          0.93422923	          0.48147237	         16.21220387	         -4.58767164	        -12.44131605	        -24.71929287	         -9.08364323	        -33.63273239	          0.93811103	         58.04528613	         58.04481315	          0.97470032	          0.56725885	          0.77211060	          0.06621424	          0.10260204	          0.35261882	          0.35064878	          0.05650446	          0.24391060	          0.11847645	          0.20005276	          0.49193749	          0.30823899	          0.98884760	          0.59552007	          0.31174620	          0.39585344	          0.51063056	
          0.70586354	          0.35420455	          0.94611274	          0.48255083	         14.12175983	         -3.70603835	        -11.40314079	        -26.19993346	         -7.01094167	        -31.47397141	          1.70996050	         57.75403928	         57.75286381	          0.98110194	          0.70048660	          0.69431487	          0.32769208	          0.09264545	          0.31707867	          0.40735541	          0.21010598	          0.21957749	          0.10748150	          0.18039415	          0.44282060	          0.27733378	          0.89021270	          0.53554878	          0.28091298	          0.35640345	          0.65980563	
          0.71258605	          0.49734611	          0.95751614	          0.48438183	         12.27485592	         -3.13575656	        -10.81369232	        -27.63762899	         -4.65070933	        -28.98289325	          2.37291968	         57.35254929	         57.35062912	          0.88365136	          0.79255912	          0.62440771	          0.53534715	          0.08363588	          0.28519467	          0.36757577	          0.19218358	          0.19772018	          0.13642446	          0.16301509	          0.39851133	          0.24948169	          0.80071128	          0.48166121	          0.25316865	          0.32088998	          0.76376602	
